{
  "accessors": [
    {
      "bufferView": 2,
      "componentType": 5126,
      "count": 267,
      "max": [
        0.2565886974334717,
        1.4313910007476807,
        0.7431371808052063
      ],
      "min": [
        0.07189106196165085,
        0.9867212772369385,
        0.47865769267082214
      ],
      "type": "VEC3"
    },
    {
      "bufferView": 2,
      "byteOffset": 3204,
      "componentType": 5126,
      "count": 267,
      "max": [
        0.9984299540519714,
        0.9958212971687317,
        0.9995266795158386
      ],
      "min": [
        -0.9958181977272034,
        -0.9973248839378357,
        -0.9852849245071411
      ],
      "type": "VEC3"
    },
    {
      "bufferView": 1,
      "componentType": 5126,
      "count": 267,
      "max": [
        0.38751810789108276,
        0.18411539494991302
      ],
      "min": [
        0.07309067249298096,
        0.011123769916594028
      ],
      "type": "VEC2"
    },
    {
      "bufferView": 0,
      "componentType": 5125,
      "count": 1308,
      "type": "SCALAR"
    },
    {
      "bufferView": 2,
      "byteOffset": 6408,
      "componentType": 5126,
      "count": 272,
      "max": [
        -0.07345712184906006,
        1.4387309551239014,
        0.7367119789123535
      ],
      "min": [
        -0.26789361238479614,
        0.9922341108322144,
        0.47921350598335266
      ],
      "type": "VEC3"
    },
    {
      "bufferView": 2,
      "byteOffset": 9672,
      "componentType": 5126,
      "count": 272,
      "max": [
        0.9967015981674194,
        0.9970889091491699,
        0.9965745806694031
      ],
      "min": [
        -0.9993571043014526,
        -0.9927579760551453,
        -0.9876574277877808
      ],
      "type": "VEC3"
    },
    {
      "bufferView": 1,
      "byteOffset": 2136,
      "componentType": 5126,
      "count": 272,
      "max": [
        0.38751810789108276,
        0.19737550616264343
      ],
      "min": [
        0.00924694538116455,
        0.011123769916594028
      ],
      "type": "VEC2"
    },
    {
      "bufferView": 0,
      "byteOffset": 5232,
      "componentType": 5125,
      "count": 1308,
      "type": "SCALAR"
    },
    {
      "bufferView": 2,
      "byteOffset": 12936,
      "componentType": 5126,
      "count": 42,
      "max": [
        0.11644750088453293,
        0.9944648742675781,
        0.7666947841644287
      ],
      "min": [
        -0.1124901995062828,
        0.8837066292762756,
        0.7125251889228821
      ],
      "type": "VEC3"
    },
    {
      "bufferView": 2,
      "byteOffset": 13440,
      "componentType": 5126,
      "count": 42,
      "max": [
        0.9634732007980347,
        0.9795411229133606,
        0.9236735105514526
      ],
      "min": [
        -0.9491745233535767,
        -0.9659029245376587,
        -0.17496930062770844
      ],
      "type": "VEC3"
    },
    {
      "bufferView": 1,
      "byteOffset": 4312,
      "componentType": 5126,
      "count": 42,
      "max": [
        0.8999313116073608,
        0.08162050694227219
      ],
      "min": [
        0.7801784873008728,
        0.021133720874786377
      ],
      "type": "VEC2"
    },
    {
      "bufferView": 0,
      "byteOffset": 10464,
      "componentType": 5125,
      "count": 204,
      "type": "SCALAR"
    },
    {
      "bufferView": 2,
      "byteOffset": 13944,
      "componentType": 5126,
      "count": 1025,
      "max": [
        1.1019320487976074,
        1.6142990589141846,
        0.7502328157424927
      ],
      "min": [
        -1.1019320487976074,
        0.0008689999813213944,
        -0.7502331733703613
      ],
      "type": "VEC3"
    },
    {
      "bufferView": 2,
      "byteOffset": 26244,
      "componentType": 5126,
      "count": 1025,
      "max": [
        1.0,
        0.9999848008155823,
        1.0
      ],
      "min": [
        -1.0,
        -0.9999848008155823,
        -0.9999848008155823
      ],
      "type": "VEC3"
    },
    {
      "bufferView": 1,
      "byteOffset": 4648,
      "componentType": 5126,
      "count": 1025,
      "max": [
        0.9949951171875,
        0.9983978271484375
      ],
      "min": [
        0.0065765380859375,
        0.01158154010772705
      ],
      "type": "VEC2"
    },
    {
      "bufferView": 0,
      "byteOffset": 11280,
      "componentType": 5125,
      "count": 5472,
      "type": "SCALAR"
    }
  ],
  "asset": {
    "extras": {
      "author": "Philmodelarchiver (https://sketchfab.com/k98forever2021)",
      "license": "CC-BY-4.0 (http://creativecommons.org/licenses/by/4.0/)",
      "source": "https://sketchfab.com/3d-models/kirby-rainbow-curse-0be2c085fafd49919b9735da104e6dff",
      "title": "Kirby (Rainbow Curse)"
    },
    "generator": "Sketchfab-12.16.1",
    "version": "2.0"
  },
  "bufferViews": [
    {
      "buffer": 0,
      "byteLength": 33168,
      "name": "floatBufferViews",
      "target": 34963
    },
    {
      "buffer": 0,
      "byteLength": 12848,
      "byteOffset": 33168,
      "byteStride": 8,
      "name": "floatBufferViews",
      "target": 34962
    },
    {
      "buffer": 0,
      "byteLength": 38544,
      "byteOffset": 46016,
      "byteStride": 12,
      "name": "floatBufferViews",
      "target": 34962
    }
  ],
  "buffers": [
    {
      "byteLength": 84560,
      "uri": "scene.bin"
    }
  ],
  "images": [
    {
      "uri": "textures/KirbyC_baseColor.png"
    }
  ],
  "materials": [
    {
      "doubleSided": true,
      "name": "KirbyC",
      "pbrMetallicRoughness": {
        "baseColorTexture": {
          "index": 0
        },
        "metallicFactor": 0.0,
        "roughnessFactor": 0.6
      }
    }
  ],
  "meshes": [
    {
      "name": "KirbyC-material",
      "primitives": [
        {
          "attributes": {
            "NORMAL": 1,
            "POSITION": 0,
            "TEXCOORD_0": 2
          },
          "indices": 3,
          "material": 0,
          "mode": 4
        }
      ]
    },
    {
      "name": "KirbyC-material",
      "primitives": [
        {
          "attributes": {
            "NORMAL": 5,
            "POSITION": 4,
            "TEXCOORD_0": 6
          },
          "indices": 7,
          "material": 0,
          "mode": 4
        }
      ]
    },
    {
      "name": "KirbyC-material",
      "primitives": [
        {
          "attributes": {
            "NORMAL": 9,
            "POSITION": 8,
            "TEXCOORD_0": 10
          },
          "indices": 11,
          "material": 0,
          "mode": 4
        }
      ]
    },
    {
      "name": "KirbyC-material",
      "primitives": [
        {
          "attributes": {
            "NORMAL": 13,
            "POSITION": 12,
            "TEXCOORD_0": 14
          },
          "indices": 15,
          "material": 0,
          "mode": 4
        }
      ]
    }
  ],
  "nodes": [
    {
      "children": [
        1
      ],
      "matrix": [
        1.0,
        0.0,
        0.0,
        0.0,
        0.0,
        2.220446049250313e-16,
        -1.0,
        0.0,
        0.0,
        1.0,
        2.220446049250313e-16,
        0.0,
        0.0,
        0.0,
        0.0,
        1.0
      ],
      "name": "Sketchfab_model"
    },
    {
      "children": [
        2,
        4,
        6,
        8
      ],
      "name": "Collada visual scene group"
    },
    {
      "children": [
        3
      ],
      "matrix": [
        3.92184,
        0.0,
        0.0,
        0.0,
        0.0,
        -0.06045369,
        3.921374,
        0.0,
        0.0,
        -3.921374,
        -0.06045369,
        0.0,
        0.0,
        0.0,
        0.0,
        1.0
      ],
      "name": "LEye01M__KirbyC"
    },
    {
      "mesh": 0,
      "name": "KirbyC-material"
    },
    {
      "children": [
        5
      ],
      "matrix": [
        3.92184,
        0.0,
        0.0,
        0.0,
        0.0,
        -0.06045369,
        3.921374,
        0.0,
        0.0,
        -3.921374,
        -0.06045369,
        0.0,
        0.0,
        0.0,
        0.0,
        1.0
      ],
      "name": "REye01M__KirbyC"
    },
    {
      "mesh": 1,
      "name": "KirbyC-material"
    },
    {
      "children": [
        7
      ],
      "matrix": [
        3.92184,
        0.0,
        0.0,
        0.0,
        0.0,
        -0.06045369,
        3.921374,
        0.0,
        0.0,
        -3.921374,
        -0.06045369,
        0.0,
        0.0,
        0.0,
        0.0,
        1.0
      ],
      "name": "MouthCloseM__KirbyC"
    },
    {
      "mesh": 2,
      "name": "KirbyC-material"
    },
    {
      "children": [
        9
      ],
      "matrix": [
        3.92184,
        0.0,
        0.0,
        0.0,
        0.0,
        -0.06045369,
        3.921374,
        0.0,
        0.0,
        -3.921374,
        -0.06045369,
        0.0,
        0.0,
        0.0,
        0.0,
        1.0
      ],
      "name": "BodyM__KirbyC"
    },
    {
      "mesh": 3,
      "name": "KirbyC-material"
    }
  ],
  "samplers": [
    {
      "magFilter": 9729,
      "minFilter": 9987,
      "wrapS": 10497,
      "wrapT": 10497
    }
  ],
  "scene": 0,
  "scenes": [
    {
      "name": "Sketchfab_Scene",
      "nodes": [
        0
      ]
    }
  ],
  "textures": [
    {
      "sampler": 0,
      "source": 0
    }
  ]
}
